<svg xmlns="http://www.w3.org/2000/svg" xmlns:xlink="http://www.w3.org/1999/xlink" contentStyleType="text/css" data-diagram-type="CLASS" height="663px" preserveAspectRatio="none" style="width:845px;height:663px;background:#FFFFFF;" version="1.1" viewBox="0 0 845 663" width="845px" zoomAndPan="magnify"><?plantuml 1.2026.6?><defs/><g><g class="title" data-source-line="2"><text fill="#000000" font-family="sans-serif" font-size="14" font-weight="700" lengthAdjust="spacing" textLength="292.4551" x="272.7725" y="24.5332">OAT 1 - Encontro 2 - Repositorios Singleton</text></g><!--cluster model--><g class="cluster" data-qualified-name="model" data-source-line="16" id="ent0001"><rect fill="none" height="450" rx="2.5" ry="2.5" style="stroke:#000000;stroke-width:1.5;" width="456" x="381" y="54.6094"/><text fill="#000000" font-family="sans-serif" font-size="14" font-weight="700" lengthAdjust="spacing" textLength="41.2275" x="588.3862" y="71.1426">model</text></g><!--cluster repository--><g class="cluster" data-qualified-name="repository" data-source-line="49" id="ent0005"><rect fill="none" height="525" rx="2.5" ry="2.5" style="stroke:#000000;stroke-width:1.5;" width="296" x="14" y="42.6094"/><text fill="#000000" font-family="sans-serif" font-size="14" font-weight="700" lengthAdjust="spacing" textLength="68.4619" x="127.769" y="59.1426">repository</text></g><!--class CategoriaPeca--><g class="entity" data-qualified-name="model.CategoriaPeca" data-source-line="17" id="ent0002"><rect fill="#FFFFFF" height="136.0469" rx="2.5" ry="2.5" style="stroke:#17173A;stroke-width:0.5;" width="124.6133" x="704" y="135.6094"/><rect fill="#F0F0F2" height="32" rx="2.5" ry="2.5" style="stroke:#F0F0F2;stroke-width:0.5;" width="124.6133" x="704" y="135.6094"/><rect fill="#F0F0F2" height="2.5" style="stroke:#F0F0F2;stroke-width:0.5;" width="124.6133" x="704" y="165.1094"/><rect fill="none" height="136.0469" rx="2.5" ry="2.5" style="stroke:#17173A;stroke-width:0.5;" width="124.6133" x="704" y="135.6094"/><ellipse cx="719" cy="151.6094" fill="#EB937F" rx="11" ry="11" style="stroke:#181818;stroke-width:1;"/><path d="M717.8594,152.4063 L717.8594,154.9063 L722.1875,154.9063 L722.1875,153.9844 Q722.1875,153.375 722.4219,153.1094 Q722.6719,152.8438 723.0469,152.8438 Q723.4219,152.8438 723.6563,153.1094 Q723.8906,153.375 723.8906,153.9844 L723.8906,156.6094 L715.8906,156.6094 Q715.2656,156.6094 715,156.375 Q714.75,156.1406 714.75,155.75 Q714.75,155.375 715.0156,155.1406 Q715.2813,154.9063 715.8906,154.9063 L716.1563,154.9063 L716.1563,148.25 L715.8906,148.25 Q715.2656,148.25 715,148.0156 Q714.75,147.7813 714.75,147.3906 Q714.75,147.0156 715,146.7813 Q715.2656,146.5469 715.8906,146.5469 L723.5156,146.5469 L723.5156,149.1406 Q723.5156,149.75 723.2813,150.0156 Q723.0625,150.2656 722.6719,150.2656 Q722.2969,150.2656 722.0625,150.0156 Q721.8281,149.75 721.8281,149.1406 L721.8281,148.25 L717.8594,148.25 L717.8594,150.7031 L719.3438,150.7031 Q719.3438,150.0469 719.4688,149.8594 Q719.7344,149.4531 720.2031,149.4531 Q720.5781,149.4531 720.8125,149.7188 Q721.0469,149.9688 721.0469,150.5781 L721.0469,152.5469 Q721.0469,153.0938 720.9219,153.2813 Q720.6563,153.6719 720.2031,153.6719 Q719.7344,153.6719 719.4688,153.2656 Q719.3438,153.0781 719.3438,152.4063 L717.8594,152.4063 Z " fill="#000000"/><text fill="#111111" font-family="sans-serif" font-size="14" lengthAdjust="spacing" textLength="92.6133" x="733" y="157.3379">CategoriaPeca</text><line style="stroke:#17173A;stroke-width:0.5;" x1="705" x2="827.6133" y1="167.6094" y2="167.6094"/><text fill="#000000" font-family="sans-serif" font-size="14" lengthAdjust="spacing" textLength="52.1035" x="710" y="186.1426">MOTOR</text><text fill="#000000" font-family="sans-serif" font-size="14" lengthAdjust="spacing" textLength="87.1377" x="710" y="203.752">SUSPENSAO</text><text fill="#000000" font-family="sans-serif" font-size="14" lengthAdjust="spacing" textLength="52.1172" x="710" y="221.3613">FREIOS</text><text fill="#000000" font-family="sans-serif" font-size="14" lengthAdjust="spacing" textLength="68.4619" x="710" y="238.9707">ELETRICA</text><text fill="#000000" font-family="sans-serif" font-size="14" lengthAdjust="spacing" textLength="92.5791" x="710" y="256.5801">ACESSORIOS</text><line style="stroke:#17173A;stroke-width:0.5;" x1="705" x2="827.6133" y1="263.6563" y2="263.6563"/></g><!--class Peca--><g class="entity" data-qualified-name="model.Peca" data-source-line="25" id="ent0003"><rect fill="#FFFFFF" height="241.7031" rx="2.5" ry="2.5" style="stroke:#17173A;stroke-width:0.5;" width="222.1094" x="389" y="82.6094"/><rect fill="#F0F0F2" height="32" rx="2.5" ry="2.5" style="stroke:#F0F0F2;stroke-width:0.5;" width="222.1094" x="389" y="82.6094"/><rect fill="#F0F0F2" height="2.5" style="stroke:#F0F0F2;stroke-width:0.5;" width="222.1094" x="389" y="112.1094"/><rect fill="none" height="241.7031" rx="2.5" ry="2.5" style="stroke:#17173A;stroke-width:0.5;" width="222.1094" x="389" y="82.6094"/><ellipse cx="479.8496" cy="98.6094" fill="#ADD1B2" rx="11" ry="11" style="stroke:#181818;stroke-width:1;"/><path d="M482.6152,94.4844 Q482.7715,94.2656 482.959,94.1563 Q483.1465,94.0469 483.3652,94.0469 Q483.7402,94.0469 483.9746,94.3125 Q484.209,94.5625 484.209,95.1719 L484.209,96.625 Q484.209,97.2344 483.9746,97.5 Q483.7402,97.7656 483.3652,97.7656 Q483.0215,97.7656 482.8184,97.5625 Q482.6152,97.375 482.5059,96.8594 Q482.459,96.5 482.2715,96.3125 Q481.9434,95.9375 481.334,95.7188 Q480.7246,95.5 480.0996,95.5 Q479.334,95.5 478.6934,95.8281 Q478.0684,96.1563 477.5684,96.9063 Q477.084,97.6563 477.084,98.6875 L477.084,99.7813 Q477.084,101.0156 477.9746,101.8438 Q478.8652,102.6563 480.459,102.6563 Q481.3965,102.6563 482.0527,102.4063 Q482.4434,102.25 482.8652,101.8125 Q483.1309,101.5469 483.2715,101.4688 Q483.4277,101.3906 483.6309,101.3906 Q483.959,101.3906 484.209,101.6563 Q484.4746,101.9063 484.4746,102.25 Q484.4746,102.5938 484.1309,103 Q483.6309,103.5781 482.834,103.9063 Q481.7559,104.3594 480.459,104.3594 Q478.9434,104.3594 477.7402,103.7344 Q476.7559,103.2344 476.0684,102.1719 Q475.3809,101.0938 475.3809,99.8125 L475.3809,98.6563 Q475.3809,97.3281 475.9902,96.1875 Q476.6152,95.0313 477.709,94.4219 Q478.8027,93.7969 480.0371,93.7969 Q480.7715,93.7969 481.4121,93.9688 Q482.0684,94.125 482.6152,94.4844 Z " fill="#000000"/><text fill="#111111" font-family="sans-serif" font-size="14" lengthAdjust="spacing" textLength="31.9102" x="500.3496" y="104.3379">Peca</text><line style="stroke:#17173A;stroke-width:0.5;" x1="390" x2="610.1094" y1="114.6094" y2="114.6094"/><text fill="#000000" font-family="sans-serif" font-size="14" lengthAdjust="spacing" textLength="88.7305" x="395" y="133.1426">-codigo : Long</text><text fill="#000000" font-family="sans-serif" font-size="14" lengthAdjust="spacing" textLength="135.3926" x="395" y="150.752">-codigoBarras : String</text><text fill="#000000" font-family="sans-serif" font-size="14" lengthAdjust="spacing" textLength="119.834" x="395" y="168.3613">-fornecedor : String</text><text fill="#000000" font-family="sans-serif" font-size="14" lengthAdjust="spacing" textLength="180.5781" x="395" y="185.9707">-quantidadeEstoque : Integer</text><text fill="#000000" font-family="sans-serif" font-size="14" lengthAdjust="spacing" textLength="158.7236" x="395" y="203.5801">-precoCusto : BigDecimal</text><text fill="#000000" font-family="sans-serif" font-size="14" lengthAdjust="spacing" textLength="162.6338" x="395" y="221.1895">-precoVenda : BigDecimal</text><text fill="#000000" font-family="sans-serif" font-size="14" lengthAdjust="spacing" textLength="194.5371" x="395" y="238.7988">-dataCadastro : LocalDateTime</text><text fill="#000000" font-family="sans-serif" font-size="14" lengthAdjust="spacing" textLength="210.1094" x="395" y="256.4082">-dataAtualizacao : LocalDateTime</text><text fill="#000000" font-family="sans-serif" font-size="14" lengthAdjust="spacing" textLength="107.3857" x="395" y="274.0176">-tamanho : String</text><text fill="#000000" font-family="sans-serif" font-size="14" lengthAdjust="spacing" textLength="72.3516" x="395" y="291.627">-cor : String</text><text fill="#000000" font-family="sans-serif" font-size="14" lengthAdjust="spacing" textLength="166.5371" x="395" y="309.2363">-categoria : CategoriaPeca</text><line style="stroke:#17173A;stroke-width:0.5;" x1="390" x2="610.1094" y1="316.3125" y2="316.3125"/></g><!--class Servico--><g class="entity" data-qualified-name="model.Servico" data-source-line="39" id="ent0004"><rect fill="#FFFFFF" height="153.6563" rx="2.5" ry="2.5" style="stroke:#17173A;stroke-width:0.5;" width="222.1094" x="389" y="342.6094"/><rect fill="#F0F0F2" height="32" rx="2.5" ry="2.5" style="stroke:#F0F0F2;stroke-width:0.5;" width="222.1094" x="389" y="342.6094"/><rect fill="#F0F0F2" height="2.5" style="stroke:#F0F0F2;stroke-width:0.5;" width="222.1094" x="389" y="372.1094"/><rect fill="none" height="153.6563" rx="2.5" ry="2.5" style="stroke:#17173A;stroke-width:0.5;" width="222.1094" x="389" y="342.6094"/><ellipse cx="472.4634" cy="358.6094" fill="#ADD1B2" rx="11" ry="11" style="stroke:#181818;stroke-width:1;"/><path d="M475.229,354.4844 Q475.3853,354.2656 475.5728,354.1563 Q475.7603,354.0469 475.979,354.0469 Q476.354,354.0469 476.5884,354.3125 Q476.8228,354.5625 476.8228,355.1719 L476.8228,356.625 Q476.8228,357.2344 476.5884,357.5 Q476.354,357.7656 475.979,357.7656 Q475.6353,357.7656 475.4321,357.5625 Q475.229,357.375 475.1196,356.8594 Q475.0728,356.5 474.8853,356.3125 Q474.5571,355.9375 473.9478,355.7188 Q473.3384,355.5 472.7134,355.5 Q471.9478,355.5 471.3071,355.8281 Q470.6821,356.1563 470.1821,356.9063 Q469.6978,357.6563 469.6978,358.6875 L469.6978,359.7813 Q469.6978,361.0156 470.5884,361.8438 Q471.479,362.6563 473.0728,362.6563 Q474.0103,362.6563 474.6665,362.4063 Q475.0571,362.25 475.479,361.8125 Q475.7446,361.5469 475.8853,361.4688 Q476.0415,361.3906 476.2446,361.3906 Q476.5728,361.3906 476.8228,361.6563 Q477.0884,361.9063 477.0884,362.25 Q477.0884,362.5938 476.7446,363 Q476.2446,363.5781 475.4478,363.9063 Q474.3696,364.3594 473.0728,364.3594 Q471.5571,364.3594 470.354,363.7344 Q469.3696,363.2344 468.6821,362.1719 Q467.9946,361.0938 467.9946,359.8125 L467.9946,358.6563 Q467.9946,357.3281 468.604,356.1875 Q469.229,355.0313 470.3228,354.4219 Q471.4165,353.7969 472.6509,353.7969 Q473.3853,353.7969 474.0259,353.9688 Q474.6821,354.125 475.229,354.4844 Z " fill="#000000"/><text fill="#111111" font-family="sans-serif" font-size="14" lengthAdjust="spacing" textLength="46.6826" x="492.9634" y="364.3379">Servico</text><line style="stroke:#17173A;stroke-width:0.5;" x1="390" x2="610.1094" y1="374.6094" y2="374.6094"/><text fill="#000000" font-family="sans-serif" font-size="14" lengthAdjust="spacing" textLength="88.7305" x="395" y="393.1426">-codigo : Long</text><text fill="#000000" font-family="sans-serif" font-size="14" lengthAdjust="spacing" textLength="87.9238" x="395" y="410.752">-nome : String</text><text fill="#000000" font-family="sans-serif" font-size="14" lengthAdjust="spacing" textLength="206.2061" x="395" y="428.3613">-tempoEstimadoMinutos : Integer</text><text fill="#000000" font-family="sans-serif" font-size="14" lengthAdjust="spacing" textLength="178.9717" x="395" y="445.9707">-custoTabelado : BigDecimal</text><text fill="#000000" font-family="sans-serif" font-size="14" lengthAdjust="spacing" textLength="185.9717" x="395" y="463.5801">-dataCriacao : LocalDateTime</text><text fill="#000000" font-family="sans-serif" font-size="14" lengthAdjust="spacing" textLength="210.1094" x="395" y="481.1895">-dataAtualizacao : LocalDateTime</text><line style="stroke:#17173A;stroke-width:0.5;" x1="390" x2="610.1094" y1="488.2656" y2="488.2656"/></g><!--class PecaRepository--><g class="entity" data-qualified-name="repository.PecaRepository" data-source-line="50" id="ent0006"><rect fill="#FFFFFF" height="234.7969" rx="2.5" ry="2.5" style="stroke:#17173A;stroke-width:0.5;" width="265.3193" x="29.5" y="71.1094"/><rect fill="#F0F0F2" height="42.7031" rx="2.5" ry="2.5" style="stroke:#F0F0F2;stroke-width:0.5;" width="265.3193" x="29.5" y="71.1094"/><rect fill="#F0F0F2" height="2.5" style="stroke:#F0F0F2;stroke-width:0.5;" width="265.3193" x="29.5" y="111.3125"/><rect fill="none" height="234.7969" rx="2.5" ry="2.5" style="stroke:#17173A;stroke-width:0.5;" width="265.3193" x="29.5" y="71.1094"/><ellipse cx="108.4961" cy="92.4609" fill="#ADD1B2" rx="11" ry="11" style="stroke:#181818;stroke-width:1;"/><path d="M111.2617,88.3359 Q111.418,88.1172 111.6055,88.0078 Q111.793,87.8984 112.0117,87.8984 Q112.3867,87.8984 112.6211,88.1641 Q112.8555,88.4141 112.8555,89.0234 L112.8555,90.4766 Q112.8555,91.0859 112.6211,91.3516 Q112.3867,91.6172 112.0117,91.6172 Q111.668,91.6172 111.4648,91.4141 Q111.2617,91.2266 111.1523,90.7109 Q111.1055,90.3516 110.918,90.1641 Q110.5898,89.7891 109.9805,89.5703 Q109.3711,89.3516 108.7461,89.3516 Q107.9805,89.3516 107.3398,89.6797 Q106.7148,90.0078 106.2148,90.7578 Q105.7305,91.5078 105.7305,92.5391 L105.7305,93.6328 Q105.7305,94.8672 106.6211,95.6953 Q107.5117,96.5078 109.1055,96.5078 Q110.043,96.5078 110.6992,96.2578 Q111.0898,96.1016 111.5117,95.6641 Q111.7773,95.3984 111.918,95.3203 Q112.0742,95.2422 112.2773,95.2422 Q112.6055,95.2422 112.8555,95.5078 Q113.1211,95.7578 113.1211,96.1016 Q113.1211,96.4453 112.7773,96.8516 Q112.2773,97.4297 111.4805,97.7578 Q110.4023,98.2109 109.1055,98.2109 Q107.5898,98.2109 106.3867,97.5859 Q105.4023,97.0859 104.7148,96.0234 Q104.0273,94.9453 104.0273,93.6641 L104.0273,92.5078 Q104.0273,91.1797 104.6367,90.0391 Q105.2617,88.8828 106.3555,88.2734 Q107.4492,87.6484 108.6836,87.6484 Q109.418,87.6484 110.0586,87.8203 Q110.7148,87.9766 111.2617,88.3359 Z " fill="#000000"/><text fill="#000000" font-family="sans-serif" font-size="12" font-style="italic" lengthAdjust="spacing" textLength="63.3867" x="146.7163" y="88.5664">&#171;Singleton&#187;</text><text fill="#111111" font-family="sans-serif" font-size="14" lengthAdjust="spacing" textLength="98.8271" x="128.9961" y="105.7363">PecaRepository</text><line style="stroke:#17173A;stroke-width:0.5;" x1="30.5" x2="293.8193" y1="113.8125" y2="113.8125"/><text fill="#000000" font-family="sans-serif" font-size="14" lengthAdjust="spacing" text-decoration="underline" textLength="167.3027" x="35.5" y="132.3457">-instance : PecaRepository</text><text fill="#000000" font-family="sans-serif" font-size="14" lengthAdjust="spacing" textLength="123.7373" x="35.5" y="149.9551">-pecas : List&lt;Peca&gt;</text><text fill="#000000" font-family="sans-serif" font-size="14" lengthAdjust="spacing" textLength="141.6338" x="35.5" y="167.5645">-proximoCodigo : Long</text><line style="stroke:#17173A;stroke-width:0.5;" x1="30.5" x2="293.8193" y1="174.6406" y2="174.6406"/><text fill="#000000" font-family="sans-serif" font-size="14" lengthAdjust="spacing" textLength="112.8135" x="35.5" y="193.1738">-PecaRepository()</text><text fill="#000000" font-family="sans-serif" font-size="14" lengthAdjust="spacing" text-decoration="underline" textLength="200.3818" x="35.5" y="210.7832">+getInstance() : PecaRepository</text><text fill="#000000" font-family="sans-serif" font-size="14" lengthAdjust="spacing" textLength="172.3613" x="35.5" y="228.3926">+salvar(peca : Peca) : Peca</text><text fill="#000000" font-family="sans-serif" font-size="14" lengthAdjust="spacing" textLength="128.7754" x="35.5" y="246.002">+listar() : List&lt;Peca&gt;</text><text fill="#000000" font-family="sans-serif" font-size="14" lengthAdjust="spacing" textLength="253.3193" x="35.5" y="263.6113">+buscarPorCodigo(codigo : Long) : Peca</text><text fill="#000000" font-family="sans-serif" font-size="14" lengthAdjust="spacing" textLength="187.9336" x="35.5" y="281.2207">+atualizar(peca : Peca) : Peca</text><text fill="#000000" font-family="sans-serif" font-size="14" lengthAdjust="spacing" textLength="203.5195" x="35.5" y="298.8301">+excluir(codigo : Long) : boolean</text></g><!--class ServicoRepository--><g class="entity" data-qualified-name="repository.ServicoRepository" data-source-line="63" id="ent0007"><rect fill="#FFFFFF" height="234.7969" rx="2.5" ry="2.5" style="stroke:#17173A;stroke-width:0.5;" width="280.0918" x="22" y="324.1094"/><rect fill="#F0F0F2" height="42.7031" rx="2.5" ry="2.5" style="stroke:#F0F0F2;stroke-width:0.5;" width="280.0918" x="22" y="324.1094"/><rect fill="#F0F0F2" height="2.5" style="stroke:#F0F0F2;stroke-width:0.5;" width="280.0918" x="22" y="364.3125"/><rect fill="none" height="234.7969" rx="2.5" ry="2.5" style="stroke:#17173A;stroke-width:0.5;" width="280.0918" x="22" y="324.1094"/><ellipse cx="100.9961" cy="345.4609" fill="#ADD1B2" rx="11" ry="11" style="stroke:#181818;stroke-width:1;"/><path d="M103.7617,341.3359 Q103.918,341.1172 104.1055,341.0078 Q104.293,340.8984 104.5117,340.8984 Q104.8867,340.8984 105.1211,341.1641 Q105.3555,341.4141 105.3555,342.0234 L105.3555,343.4766 Q105.3555,344.0859 105.1211,344.3516 Q104.8867,344.6172 104.5117,344.6172 Q104.168,344.6172 103.9648,344.4141 Q103.7617,344.2266 103.6523,343.7109 Q103.6055,343.3516 103.418,343.1641 Q103.0898,342.7891 102.4805,342.5703 Q101.8711,342.3516 101.2461,342.3516 Q100.4805,342.3516 99.8398,342.6797 Q99.2148,343.0078 98.7148,343.7578 Q98.2305,344.5078 98.2305,345.5391 L98.2305,346.6328 Q98.2305,347.8672 99.1211,348.6953 Q100.0117,349.5078 101.6055,349.5078 Q102.543,349.5078 103.1992,349.2578 Q103.5898,349.1016 104.0117,348.6641 Q104.2773,348.3984 104.418,348.3203 Q104.5742,348.2422 104.7773,348.2422 Q105.1055,348.2422 105.3555,348.5078 Q105.6211,348.7578 105.6211,349.1016 Q105.6211,349.4453 105.2773,349.8516 Q104.7773,350.4297 103.9805,350.7578 Q102.9023,351.2109 101.6055,351.2109 Q100.0898,351.2109 98.8867,350.5859 Q97.9023,350.0859 97.2148,349.0234 Q96.5273,347.9453 96.5273,346.6641 L96.5273,345.5078 Q96.5273,344.1797 97.1367,343.0391 Q97.7617,341.8828 98.8555,341.2734 Q99.9492,340.6484 101.1836,340.6484 Q101.918,340.6484 102.5586,340.8203 Q103.2148,340.9766 103.7617,341.3359 Z " fill="#000000"/><text fill="#000000" font-family="sans-serif" font-size="12" font-style="italic" lengthAdjust="spacing" textLength="63.3867" x="146.6025" y="341.5664">&#171;Singleton&#187;</text><text fill="#111111" font-family="sans-serif" font-size="14" lengthAdjust="spacing" textLength="113.5996" x="121.4961" y="358.7363">ServicoRepository</text><line style="stroke:#17173A;stroke-width:0.5;" x1="23" x2="301.0918" y1="366.8125" y2="366.8125"/><text fill="#000000" font-family="sans-serif" font-size="14" lengthAdjust="spacing" text-decoration="underline" textLength="182.0752" x="28" y="385.3457">-instance : ServicoRepository</text><text fill="#000000" font-family="sans-serif" font-size="14" lengthAdjust="spacing" textLength="152.4961" x="28" y="402.9551">-servicos : List&lt;Servico&gt;</text><text fill="#000000" font-family="sans-serif" font-size="14" lengthAdjust="spacing" textLength="141.6338" x="28" y="420.5645">-proximoCodigo : Long</text><line style="stroke:#17173A;stroke-width:0.5;" x1="23" x2="301.0918" y1="427.6406" y2="427.6406"/><text fill="#000000" font-family="sans-serif" font-size="14" lengthAdjust="spacing" textLength="127.5859" x="28" y="446.1738">-ServicoRepository()</text><text fill="#000000" font-family="sans-serif" font-size="14" lengthAdjust="spacing" text-decoration="underline" textLength="215.1543" x="28" y="463.7832">+getInstance() : ServicoRepository</text><text fill="#000000" font-family="sans-serif" font-size="14" lengthAdjust="spacing" textLength="215.8926" x="28" y="481.3926">+salvar(servico : Servico) : Servico</text><text fill="#000000" font-family="sans-serif" font-size="14" lengthAdjust="spacing" textLength="143.5479" x="28" y="499.002">+listar() : List&lt;Servico&gt;</text><text fill="#000000" font-family="sans-serif" font-size="14" lengthAdjust="spacing" textLength="268.0918" x="28" y="516.6113">+buscarPorCodigo(codigo : Long) : Servico</text><text fill="#000000" font-family="sans-serif" font-size="14" lengthAdjust="spacing" textLength="231.4648" x="28" y="534.2207">+atualizar(servico : Servico) : Servico</text><text fill="#000000" font-family="sans-serif" font-size="14" lengthAdjust="spacing" textLength="203.5195" x="28" y="551.8301">+excluir(codigo : Long) : boolean</text></g><g class="link" data-entity-1="ent0003" data-entity-2="ent0002" data-link-type="dependency" id="lnk8"><polygon fill="#17173A" points="703.7623,203.6094,694.7623,199.6094,698.7623,203.6094,694.7623,207.6094,703.7623,203.6094" style="stroke:#17173A;stroke-width:1;stroke-linejoin:miter;stroke-miterlimit:10;"/><path d="M611.2565,203.6094 C642.8667,203.6094 671.2016,203.6094 698.7623,203.6094" fill="none" style="stroke:#17173A;stroke-width:1;"/><text fill="#000000" font-family="sans-serif" font-size="13" lengthAdjust="spacing" textLength="53.479" x="631" y="199.1045">categoria</text><text fill="#000000" font-family="sans-serif" font-size="13" lengthAdjust="spacing" textLength="7.23" x="695.7623" y="218.1045">1</text></g><g class="link" data-entity-1="ent0006" data-entity-2="ent0003" data-link-type="aggregation" id="lnk9"><polygon fill="none" points="294.8317,194.4947,300.6474,198.7583,306.8198,195.0299,301.0042,190.7663,294.8317,194.4947" style="stroke:#17173A;stroke-width:1;stroke-linejoin:miter;stroke-miterlimit:10;"/><path d="M306.8198,195.0299 C337.9827,196.4211 358.9006,197.3549 388.9801,198.6978" fill="none" style="stroke:#17173A;stroke-width:1;"/><text fill="#000000" font-family="sans-serif" font-size="13" lengthAdjust="spacing" textLength="34.6899" x="328.5" y="192.1045">pecas</text><text fill="#000000" font-family="sans-serif" font-size="13" lengthAdjust="spacing" textLength="19.5127" x="368.9801" y="213.1929">0..*</text><text fill="#000000" font-family="sans-serif" font-size="13" lengthAdjust="spacing" textLength="7.23" x="295.8317" y="208.9898">1</text></g><g class="link" data-entity-1="ent0007" data-entity-2="ent0004" data-link-type="aggregation" id="lnk10"><polygon fill="none" points="302.0895,432.5023,308.338,436.1018,314.0638,431.7183,307.8153,428.1189,302.0895,432.5023" style="stroke:#17173A;stroke-width:1;stroke-linejoin:miter;stroke-miterlimit:10;"/><path d="M314.0638,431.7183 C343.0403,429.821 361.2254,428.6303 388.9788,426.8131" fill="none" style="stroke:#17173A;stroke-width:1;"/><text fill="#000000" font-family="sans-serif" font-size="13" lengthAdjust="spacing" textLength="47.6772" x="322" y="424.1045">servicos</text><text fill="#000000" font-family="sans-serif" font-size="13" lengthAdjust="spacing" textLength="19.5127" x="368.9788" y="441.3083">0..*</text><text fill="#000000" font-family="sans-serif" font-size="13" lengthAdjust="spacing" textLength="7.23" x="303.0895" y="446.9974">1</text></g><g class="legend" data-source-line="81"><rect fill="none" height="62.8281" rx="7.5" ry="7.5" style="stroke:#000000;stroke-width:1;" width="209.9854" x="314.0073" y="581.6094"/><text fill="#000000" font-family="sans-serif" font-size="14" lengthAdjust="spacing" textLength="56.4307" x="319.0073" y="601.1426">+ publico</text><text fill="#000000" font-family="sans-serif" font-size="14" lengthAdjust="spacing" textLength="54.4688" x="319.0073" y="618.752">- privado</text><text fill="#000000" font-family="sans-serif" font-size="14" lengthAdjust="spacing" textLength="199.9854" x="319.0073" y="636.3613">Membros sublinhados sao static</text></g><?plantuml-src dLLDJ-Cm4BtdLynsBsLH4MKFI0XL2gLeAy4MDTszJnsJMZYUOZj0GVptdQJfHv8MgcqlpipBp9ltREVRt6AI8cXSKER1fTAZmS0hhoMCmWbqeGC38yXuIt363sCv9wSyMKKE8cKIBJsPGCi73vx0gcJc8LPM2gyuxXwLcQF55AOe7XDBcOdxfCd2oqnvkPLtCupfXGl20sgtdH4QdGkzjsgQUJbaCf5wat2w1PbpSKnav1VCE--DER5w3NWF0AvgFBxV5ByyGpQMjenspxldFqEEXjRIIprumuAiOiMFOxyayklDygVyFmi-Wg0a2QsKOgbR1HjfiXJww6N2YkAz55Y40Uv6az6uM4L_ell1xoWS5Kytuy5m51NBmUrWCXxsm-8Xx0-YQ3HUvhWPb2DlbUo0e5Wb11TmIoQfnAxGMdISYLZcTUw1h952nZn7BVEKeV4gvea7pjDJ9XamD3o6j2LYpZPGF-CifwvKSYs5Ib5lP_zA4-EkR8mU-nYZotTTpbQWlcQH9YgLMv3GPwZL6mhSX_AOefbHdRre3YHM7d2YuaTLpaZQPoNeKqKDfR9UtijqJYmL3ndJdJAP9zUGJEHgJN0gDOFswiAyzW_yjImVbQreLyTviToFcqspFkWBkBnS7_HUhnpztNdqIdnmJsLuRKG-S_N5bTSSp8UzLSvVveZUUXFGgqgflqF3Qg7sKRNdCIJI3yksxQFTZO_1eNv6syxxbv0Lj0HePiI0eoQvOvXcJg2z9xkarwuuNQk3fUAVzPAlGcVADkjCYRH4itEV_PS9ZNTBJTqolhQYn1tWHgFYruRi9h7sfEIo0MwziyUS2jq3_AbMsrXqGEk3l6AtYikrq-b1gzkgtU8Ncnibg1sd74oT3hHEJqv-jA245wSaQFfUGqThzYix0_xu9doJCZdlAGto0URPL2_7oNrLptoVyFfEfbFB_hiyQ_BlBQ_vabYw672DPQL_?></g></svg>